<?xml version="1.0" encoding="utf-8"?>
<!-- Generator: Adobe Illustrator 26.2.1, SVG Export Plug-In . SVG Version: 6.00 Build 0)  -->
<svg version="1.1" id="Layer_1" xmlns="http://www.w3.org/2000/svg" xmlns:xlink="http://www.w3.org/1999/xlink" x="0px" y="0px"
	 viewBox="0 0 595.3 597.1" style="enable-background:new 0 0 595.3 597.1;" xml:space="preserve">
<style type="text/css">
	.st0{fill:#32383E;}
	.st1{fill:#010101;}
	.st2{clip-path:url(#SVGID_00000052805066594488081760000003985978857692667065_);}
	.st3{fill:url(#SVGID_00000070830214470983062220000000254811512630650810_);}
	.st4{fill-rule:evenodd;clip-rule:evenodd;fill:#33393F;}
</style>
<g>
	<g>
		<g transform="matrix(27.6389,0,0,27.6389,2,16)">
			<path class="st0" d="M20.8,12.3H0.6c-0.3,0-0.6-0.3-0.6-0.6c0-0.3,0.3-0.6,0.6-0.6h20.2c0.3,0,0.6,0.3,0.6,0.6
				C21.4,12.1,21.1,12.3,20.8,12.3z M7.6,11.1L7.6,11.1c-0.1,0-5.5-0.4-6.4-4.9C1.1,5.9,1.3,5.6,1.6,5.5C2,5.5,2.3,5.7,2.4,6
				c0.7,3.6,5.3,3.9,5.3,4c0.3,0,0.6,0.3,0.6,0.6C8.2,10.9,7.9,11.1,7.6,11.1z M1.8,18.3c-0.1,0-0.2,0-0.3-0.1
				c-0.3-0.1-0.4-0.5-0.3-0.8c1.9-4,6.6-4.6,6.8-4.6c0.3,0,0.6,0.2,0.7,0.5c0,0.3-0.2,0.6-0.5,0.7c0,0-4.2,0.5-5.8,3.9
				C2.2,18.1,2,18.3,1.8,18.3z M13.5,11.1c-0.3,0-0.6-0.2-0.6-0.6c0-0.3,0.2-0.6,0.6-0.6c0,0,4.8-0.4,5.6-4c0.1-0.3,0.4-0.5,0.7-0.5
				c0.3,0.1,0.5,0.4,0.5,0.7C19.3,10.7,13.8,11.1,13.5,11.1L13.5,11.1z M19.6,18.3c-0.2,0-0.4-0.1-0.5-0.3c-1.6-3.4-6-3.9-6.1-3.9
				c-0.3,0-0.6-0.3-0.5-0.7c0-0.3,0.3-0.6,0.7-0.5c0.2,0,5.1,0.6,7,4.6c0.1,0.3,0,0.7-0.3,0.8C19.8,18.3,19.7,18.3,19.6,18.3z"/>
			<path class="st0" d="M14.9,4.4c0-1.6-0.8-2.5-1.8-3c0-0.1,0.1-0.3,0.1-0.4c0-0.7-0.4-1.2-0.9-1.2S11.3,0.3,11.3,1c0,0,0,0,0,0
				c-0.2,0-0.4,0-0.6,0s-0.4,0-0.6,0c0,0,0,0,0,0c0-0.7-0.4-1.2-0.9-1.2S8.3,0.3,8.3,1c0,0.2,0,0.3,0.1,0.4c-1.1,0.5-1.8,1.4-1.8,3
				c-1.8,1.1-3,2.9-3,5.5c0,4.3,3.2,10.1,7.1,10.1c3.9,0,7.1-5.8,7.1-10.1C17.8,7.4,16.7,5.5,14.9,4.4z"/>
			<path class="st1" d="M9.5,20.6c-3.8-0.4-6.8-4.1-6.8-8.7c0-4.6,3-6.4,6.8-6.8c0.2,0,0.6,0,0.6,1.4V20
				C10.1,20.7,9.7,20.6,9.5,20.6z M11.9,20.6c3.8-0.4,6.8-4.1,6.8-8.7c0-4.6-3-6.4-6.8-6.8c-0.2,0-0.6,0-0.6,1.4V20
				C11.3,20.7,11.7,20.6,11.9,20.6z"/>
			<g>
				<defs>
					<path id="SVGID_1_" d="M9.5,20.6c-3.8-0.4-6.8-4.1-6.8-8.7c0-4.6,3-6.4,6.8-6.8c0.2,0,0.6,0,0.6,1.4V20
						C10.1,20.7,9.7,20.6,9.5,20.6z M11.9,20.6c3.8-0.4,6.8-4.1,6.8-8.7c0-4.6-3-6.4-6.8-6.8c-0.2,0-0.6,0-0.6,1.4V20
						C11.3,20.7,11.7,20.6,11.9,20.6z"/>
				</defs>
				<clipPath id="SVGID_00000041295373121353302920000017283993770100932229_">
					<use xlink:href="#SVGID_1_"  style="overflow:visible;"/>
				</clipPath>
				<g style="clip-path:url(#SVGID_00000041295373121353302920000017283993770100932229_);">
					
						<g id="Background-Circle_00000070098241051235630450000004773241290700475293_" transform="matrix(0.277749,0.277749,-0.287955,0.287955,18.3155,1.08272)">
						
							<linearGradient id="SVGID_00000024691831573820752770000013112164904025870519_" gradientUnits="userSpaceOnUse" x1="10.7681" y1="74.4062" x2="11.7692" y2="74.4062" gradientTransform="matrix(324.4514 -323.9944 -336.3735 -335.8997 21520.2363 28515.0547)">
							<stop  offset="2.237672e-07" style="stop-color:#6967AF"/>
							<stop  offset="1" style="stop-color:#6B59A6"/>
						</linearGradient>
						<path style="fill:url(#SVGID_00000024691831573820752770000013112164904025870519_);" d="M6.9,54.4
							c-11.7,0-21.2-9.5-21.2-21.2s9.5-21.1,21.1-21.1c11.7,0,21.2,9.5,21.2,21.2S18.5,54.4,6.9,54.4z"/>
					</g>
				</g>
			</g>
		</g>
	</g>
	<path class="st4" d="M297.7,294.3c-15.7,0-90.6,58.4-103.4,58.4c-13.8,0-100.5-33.5-110.5-26.8c-5.6,12,85,106.9,109.6,106.9
		c24.2,0,95.9-50.5,104.2-50.5s80,50.5,104.2,50.5c24.6,0,115.2-94.8,109.6-106.9c-10-6.8-96.7,26.8-110.5,26.8
		C388.3,352.6,313.4,294.3,297.7,294.3z"/>
</g>
</svg>
